<svg width="138" height="123" viewBox="0 0 138 123" fill="none" xmlns="http://www.w3.org/2000/svg">
<path d="M132.953 86.3257C135.443 86.3257 137.461 84.3071 137.461 81.817C137.461 79.3269 135.443 77.3082 132.953 77.3082C130.462 77.3082 128.444 79.3269 128.444 81.817C128.444 84.3071 130.462 86.3257 132.953 86.3257Z" fill="#EAEEF9"/>
<path d="M124.294 98.9053C125.995 98.9053 127.373 97.5267 127.373 95.8261C127.373 94.1256 125.995 92.747 124.294 92.747C122.593 92.747 121.215 94.1256 121.215 95.8261C121.215 97.5267 122.593 98.9053 124.294 98.9053Z" fill="#F1F3F9"/>
<path d="M24.523 23.6434C26.2235 23.6434 27.6021 22.2648 27.6021 20.5642C27.6021 18.8637 26.2235 17.4851 24.523 17.4851C22.8224 17.4851 21.4438 18.8637 21.4438 20.5642C21.4438 22.2648 22.8224 23.6434 24.523 23.6434Z" fill="#EAEEF9"/>
<path d="M5.71839 83.0266C8.87657 83.0266 11.4368 80.4664 11.4368 77.3082C11.4368 74.1501 8.87657 71.5898 5.71839 71.5898C2.56021 71.5898 0 74.1501 0 77.3082C0 80.4664 2.56021 83.0266 5.71839 83.0266Z" fill="#EAEEF9"/>
<path d="M75.164 111.729C105.955 111.729 130.918 86.7656 130.918 55.8643C130.918 24.963 105.955 0 75.164 0C44.3726 0 19.4097 24.963 19.4097 55.8643C19.4097 86.7656 44.3726 111.729 75.164 111.729Z" fill="#EAEEF9"/>
<path d="M109.912 7.24844C111.585 7.24844 113 8.52855 113 10.3207V100.953C113 102.617 111.713 104.025 109.912 104.025H42.8883C41.2159 104.025 39.8008 102.745 39.8008 100.953V10.3207C39.8008 8.65656 41.0872 7.24844 42.8883 7.24844H109.912Z" fill="#CED7E2"/>
<path d="M113 16.7213V100.825C113 102.489 111.714 103.897 109.913 103.897H48.6775L43.2744 98.5205L104.123 15.1851L109.398 13.265L113 16.7213Z" fill="#BCC4CF"/>
<path d="M109.655 14.2891C109.655 13.777 109.269 13.265 108.626 13.265H44.3036C43.789 13.265 43.2744 13.649 43.2744 14.2891V97.4964C43.2744 98.0084 43.6603 98.5205 44.3036 98.5205H108.497C109.012 98.5205 109.527 98.1364 109.527 97.4964L109.655 14.2891Z" fill="#D9DFEE"/>
<path d="M109.655 14.289C109.655 13.7769 109.269 13.2649 108.626 13.2649H44.3032C43.7887 13.2649 43.2741 13.6489 43.2741 14.289C44.0459 47.4439 44.3032 84.9512 40.7012 94.6801L102.322 93.784C106.053 76.8865 108.883 46.5478 109.655 14.289Z" fill="#EFF3FB"/>
<g filter="url(#filter0_d)">
<path d="M109.526 13.3931C109.526 13.3931 109.398 18.3855 107.854 50.2603C107.854 50.5163 107.854 50.6443 107.854 50.9004C105.924 82.1351 78.1368 88.6637 74.792 89.0477C73.2483 89.1757 70.2894 89.4318 65.015 89.4318C58.4541 89.6878 48.4198 89.8158 32.7251 89.9438C32.2105 89.9438 31.8246 89.4318 32.0819 88.9197C42.8881 67.2858 43.0167 13.5211 43.0167 13.5211L109.526 13.3931Z" fill="white"/>
</g>
<path d="M107.725 50.7723C105.924 82.007 78.0085 88.5356 74.6637 88.9196C73.12 89.0476 70.1612 89.3037 64.8867 89.3037C78.7804 82.9031 86.2418 71.3821 86.1131 62.4213C92.8027 62.9334 104.381 62.4213 107.725 50.7723Z" fill="#EAEEF9"/>
<path d="M92.0309 7.50451C92.0309 7.3765 92.0309 7.3765 92.0309 7.50451L91.3877 6.86446C91.3877 6.86446 91.0017 6.99247 90.8731 7.24849H80.8388C80.8388 6.99247 80.8388 6.86446 80.8388 6.60843C80.8388 4.56025 79.0377 2.7681 76.9794 2.7681C74.9211 2.7681 73.1201 4.56025 73.1201 6.60843C73.1201 6.86446 73.1201 6.99247 73.2487 7.12048H62.8285C62.3139 7.12048 61.7993 7.50451 61.7993 8.27258V11.6009C61.7993 14.1611 63.6003 15.6972 66.0446 15.6972H87.3997C89.9726 15.6972 92.1595 14.1611 92.1595 11.6009V8.14457C92.2882 7.88855 92.1595 7.63253 92.0309 7.50451Z" fill="#636F84"/>
<path d="M91.6451 7.50448V10.8328C91.6451 11.0888 91.6451 11.2168 91.6451 11.4728C91.2592 13.649 89.4581 15.4412 87.1425 15.4412H65.6588C63.3432 15.4412 61.5422 13.649 61.1562 11.4728C61.1562 11.2168 61.1562 11.0888 61.1562 10.8328V7.50448C61.1562 6.99244 61.5422 6.35238 62.1854 6.35238H72.7343C72.7343 6.09636 72.7343 5.96835 72.7343 5.84034C72.7343 3.79216 74.5353 2 76.5936 2C78.652 2 80.453 3.79216 80.453 5.84034C80.453 6.09636 80.453 6.22437 80.453 6.35238H91.0019C91.2592 6.48039 91.6451 6.86443 91.6451 7.50448Z" fill="url(#paint0_linear)"/>
<path d="M76.3362 7.63249C77.3653 7.63249 78.1372 6.86443 78.1372 5.84034C78.1372 4.81625 77.3653 4.04818 76.3362 4.04818C75.307 4.04818 74.5352 4.81625 74.5352 5.84034C74.5352 6.86443 75.4357 7.63249 76.3362 7.63249Z" fill="#EAEEF9"/>
<path d="M91.5165 11.4729C91.1305 13.649 89.3295 15.4412 87.0139 15.4412H65.6588C63.3432 15.4412 61.5422 13.649 61.1562 11.4729H91.5165Z" fill="#9AA1B2"/>
<path d="M90.5276 68.6923H60.8243C60.6202 68.6923 60.416 68.382 60.416 67.8647C60.416 67.4509 60.6202 67.0371 60.8243 67.0371H90.6296C90.8338 67.0371 91.0379 67.3475 91.0379 67.8647C91.0379 68.2785 90.8338 68.6923 90.5276 68.6923Z" fill="#AAB2C5"/>
<path d="M74.9211 73.6582H60.808C60.612 73.6582 60.416 73.3478 60.416 72.8305C60.416 72.4167 60.612 72.0029 60.808 72.0029H74.9211C75.1172 72.0029 75.3132 72.3133 75.3132 72.8305C75.3132 73.2444 75.1172 73.6582 74.9211 73.6582Z" fill="#AAB2C5"/>
<path d="M95.5844 31.4497H64.9735C64.7639 31.4497 64.5542 31.1393 64.5542 30.6221C64.5542 30.2082 64.7639 29.7944 64.9735 29.7944H95.5844C95.7941 29.7944 96.0037 30.1048 96.0037 30.6221C96.0037 31.1393 95.7941 31.4497 95.5844 31.4497Z" fill="#AAB2C5"/>
<path d="M94.7755 35.5876H83.1622C82.962 35.5876 82.7617 35.2773 82.7617 34.76C82.7617 34.3462 82.962 33.9324 83.1622 33.9324H94.7755C94.9758 33.9324 95.176 34.2427 95.176 34.76C95.176 35.2773 94.9758 35.5876 94.7755 35.5876Z" fill="#AAB2C5"/>
<path d="M79.8652 35.5876H64.968C64.7611 35.5876 64.5542 35.2773 64.5542 34.76C64.5542 34.3462 64.7611 33.9324 64.968 33.9324H79.8652C80.0721 33.9324 80.279 34.2427 80.279 34.76C80.279 35.2773 80.0721 35.5876 79.8652 35.5876Z" fill="#AAB2C5"/>
<path d="M52.8984 36.4154C52.6799 36.4154 52.4614 36.3078 52.243 36.0927L49.0754 33.081C48.7477 32.7583 48.7477 32.1129 49.0754 31.7903C49.403 31.4676 50.0584 31.4676 50.3861 31.7903L52.8984 34.2642L58.0321 29.2088C58.3598 28.8861 59.0152 28.8861 59.3429 29.2088C59.6706 29.5315 59.6706 30.1769 59.3429 30.4995L53.5537 36.2003C53.3353 36.3078 53.1168 36.4154 52.8984 36.4154Z" fill="#AAB2C5"/>
<path d="M93.9402 49.6572H64.1349C63.9307 49.6572 63.7266 49.3468 63.7266 48.8296C63.7266 48.4158 63.9307 48.002 64.1349 48.002H93.9402C94.1443 48.002 94.3485 48.3123 94.3485 48.8296C94.3485 49.2434 94.1443 49.6572 93.9402 49.6572Z" fill="#AAB2C5"/>
<path d="M78.2069 54.623H64.1179C63.9222 54.623 63.7266 54.3127 63.7266 53.7954C63.7266 53.3816 63.9222 52.9678 64.1179 52.9678H78.2069C78.4026 52.9678 78.5983 53.2781 78.5983 53.7954C78.6961 54.2092 78.5004 54.623 78.2069 54.623Z" fill="#AAB2C5"/>
<path d="M51.6569 54.6229C51.4553 54.6229 51.2536 54.5153 51.052 54.3002L48.2288 51.2885C47.9263 50.9658 47.9263 50.3205 48.2288 49.9978C48.5313 49.6751 49.1363 49.6751 49.4387 49.9978L51.7577 52.4717L56.4966 47.4163C56.7991 47.0936 57.404 47.0936 57.7065 47.4163C58.009 47.739 58.009 48.3844 57.7065 48.7071L52.2619 54.3002C52.1611 54.5153 51.9594 54.6229 51.6569 54.6229Z" fill="#AAB2C5"/>
<path d="M48.3464 73.658C48.1447 73.658 47.9431 73.5505 47.7414 73.3354L44.9183 70.3237C44.6158 70.001 44.6158 69.3556 44.9183 69.0329C45.2207 68.7103 45.8257 68.7103 46.1282 69.0329L48.4472 71.5068L53.1861 66.4515C53.4885 66.1288 54.0935 66.1288 54.396 66.4515C54.6985 66.7742 54.6985 67.4195 54.396 67.7422L48.9513 73.3354C48.8505 73.5505 48.6489 73.658 48.3464 73.658Z" fill="#AAB2C5"/>
<path d="M125.535 95.4587C125.11 97.2643 124.473 99.1761 123.729 100.769C121.711 104.699 118.525 107.779 114.595 109.797C110.559 111.815 105.78 112.665 101 111.603C89.7417 109.266 82.5194 98.2202 84.856 86.9618C87.1927 75.7035 98.1324 68.3749 109.391 70.8178C113.427 71.6675 116.932 73.6855 119.906 76.447C124.898 81.4389 127.022 88.6612 125.535 95.4587Z" fill="url(#paint1_linear)"/>
<path d="M111.833 89.4046H107.054V84.6251C107.054 83.6692 106.31 82.8195 105.248 82.8195C104.292 82.8195 103.443 83.563 103.443 84.6251V89.4046H98.663C97.7071 89.4046 96.8574 90.148 96.8574 91.2102C96.8574 92.2723 97.6009 93.0157 98.663 93.0157H103.443V97.7952C103.443 98.7511 104.186 99.6008 105.248 99.6008C106.204 99.6008 107.054 98.8573 107.054 97.7952V93.0157H111.833C112.789 93.0157 113.639 92.2723 113.639 91.2102C113.639 90.148 112.789 89.4046 111.833 89.4046Z" fill="white"/>
<defs>
<filter id="filter0_d" x="10" y="2.39307" width="121.526" height="120.551" filterUnits="userSpaceOnUse" color-interpolation-filters="sRGB">
<feFlood flood-opacity="0" result="BackgroundImageFix"/>
<feColorMatrix in="SourceAlpha" type="matrix" values="0 0 0 0 0 0 0 0 0 0 0 0 0 0 0 0 0 0 127 0" result="hardAlpha"/>
<feOffset dy="11"/>
<feGaussianBlur stdDeviation="11"/>
<feColorMatrix type="matrix" values="0 0 0 0 0.397708 0 0 0 0 0.47749 0 0 0 0 0.575 0 0 0 0.27 0"/>
<feBlend mode="normal" in2="BackgroundImageFix" result="effect1_dropShadow"/>
<feBlend mode="normal" in="SourceGraphic" in2="effect1_dropShadow" result="shape"/>
</filter>
<linearGradient id="paint0_linear" x1="61.193" y1="8.72226" x2="91.6744" y2="8.72226" gradientUnits="userSpaceOnUse">
<stop stop-color="#B0BACC"/>
<stop offset="1" stop-color="#969EAE"/>
</linearGradient>
<linearGradient id="paint1_linear" x1="84.3979" y1="91.2097" x2="126.008" y2="91.2097" gradientUnits="userSpaceOnUse">
<stop stop-color="#B0BACC"/>
<stop offset="1" stop-color="#969EAE"/>
</linearGradient>
</defs>
</svg>
