<svg width="134" height="165" viewBox="0 0 134 165" fill="none" xmlns="http://www.w3.org/2000/svg">
<path d="M64.4237 122.867C91.7974 122.867 113.99 100.674 113.99 73.2029C113.99 45.7315 91.6996 23.5393 64.4237 23.5393C37.0501 23.5393 14.8579 45.7315 14.8579 73.2029C14.8579 100.674 37.0501 122.867 64.4237 122.867Z" fill="#EAEEF9"/>
<path d="M93.6338 23.5393C83.2422 44.0217 67.9889 52.1701 54.0085 57.036C50.764 58.181 47.2331 59.1828 43.8931 58.3241C40.5531 57.4654 37.6425 54.0783 38.5491 50.7389C39.3602 47.6381 43.3682 46.1115 46.2788 47.3518C49.2371 48.5922 50.8594 52.027 50.5731 55.2232C50.2868 58.4195 48.3305 61.2341 45.8494 63.19C43.3205 65.1459 40.3145 66.3386 37.2608 67.245C30.533 69.2486 23.519 70.2027 16.9821 72.7311C10.3976 75.2595 4.14697 79.7915 1.9044 86.4225C0.282106 91.1453 0.950108 96.4883 3.04954 100.973C5.14898 105.457 8.72756 109.226 12.7356 112.231C18.8907 116.811 26.4773 119.673 34.1116 119.482C41.7459 119.291 49.4757 115.952 54.1994 109.941C58.9231 103.93 60.3068 95.2003 56.9668 88.283C54.6765 83.5125 49.4757 79.6006 44.2748 80.7456C40.1714 81.6997 37.1653 85.7069 36.7359 89.9527C36.3065 94.1985 38.1673 98.3965 40.9348 101.545C43.7022 104.741 47.3762 106.983 51.1934 108.939C56.776 111.754 63.3606 113.901 69.134 111.515C74.6212 109.273 77.818 103.596 79.9175 98.1103C82.0169 92.6242 83.5915 86.661 87.4086 82.129C91.9892 76.6906 99.7189 74.1622 106.638 75.7842C113.556 77.4062 119.377 83.1308 121.095 90.0004C122.431 95.3434 120.809 102.022 115.799 104.36C111.886 106.22 107.067 104.884 103.679 102.213C100.292 99.5415 98.0012 95.725 95.8064 92.004" stroke="#D6DCE8" stroke-width="2" stroke-miterlimit="10" stroke-dasharray="4 4"/>
<g filter="url(#filter0_d)">
<path d="M55.1784 46.3718C63.5321 49.1997 72.5966 44.7202 75.4245 36.3665C78.2524 28.0128 73.7729 18.9483 65.4192 16.1204C57.0655 13.2925 48.001 17.772 45.1731 26.1257C42.3451 34.4794 46.8247 43.5439 55.1784 46.3718Z" fill="url(#paint0_linear)"/>
</g>
<path d="M59.7561 32.8493C60.6415 33.149 61.6023 32.6742 61.902 31.7888C62.2018 30.9033 61.7269 29.9425 60.8415 29.6428C59.9561 29.3431 58.9953 29.8179 58.6956 30.7033C58.3958 31.5887 58.8706 32.5495 59.7561 32.8493Z" fill="#989FB0"/>
<path fill-rule="evenodd" clip-rule="evenodd" d="M60.681 30.1164C60.0571 29.9052 59.3801 30.2398 59.169 30.8636C58.9578 31.4875 59.2923 32.1645 59.9162 32.3757C60.5401 32.5869 61.217 32.2523 61.4282 31.6284C61.6394 31.0046 61.3049 30.3276 60.681 30.1164ZM58.2218 30.543C58.61 29.396 59.8546 28.7809 61.0016 29.1692C62.1486 29.5575 62.7637 30.8021 62.3754 31.9491C61.9871 33.0961 60.7425 33.7112 59.5955 33.3229C58.4485 32.9346 57.8335 31.69 58.2218 30.543Z" fill="#989FB0"/>
<path d="M62.4995 24.5L60.9995 29.5" stroke="#989FB0" stroke-width="2" stroke-miterlimit="10" stroke-linecap="round" stroke-linejoin="round"/>
<path d="M62.0832 31.2543L65.5 31.5" stroke="#989FB0" stroke-width="2" stroke-miterlimit="10" stroke-linecap="round" stroke-linejoin="round"/>
<path d="M64.0744 21.77C64.3349 21.6458 64.4329 21.3215 64.2933 21.0455C64.1537 20.7696 63.8294 20.6466 63.5689 20.7708C63.3083 20.895 63.2103 21.2193 63.3499 21.4953C63.4895 21.7712 63.8139 21.8942 64.0744 21.77Z" fill="#989FB0"/>
<path fill-rule="evenodd" clip-rule="evenodd" d="M63.8029 21.2327C63.7832 21.242 63.7758 21.2665 63.7864 21.2873C63.7969 21.3082 63.8214 21.3174 63.841 21.3081C63.8607 21.2987 63.8681 21.2742 63.8576 21.2534C63.847 21.2326 63.8225 21.2233 63.8029 21.2327ZM62.9142 21.7031C62.6455 21.1721 62.8342 20.5479 63.3355 20.3089C63.8368 20.0699 64.4611 20.3066 64.7297 20.8376C64.9984 21.3686 64.8098 21.9928 64.3084 22.2318C63.8071 22.4708 63.1829 22.2341 62.9142 21.7031Z" fill="#989FB0"/>
<path d="M57.3166 41.7046C57.5771 41.5804 57.6751 41.256 57.5355 40.9801C57.3959 40.7041 57.0715 40.5811 56.811 40.7053C56.5505 40.8295 56.4525 41.1539 56.5921 41.4298C56.7317 41.7057 57.0561 41.8287 57.3166 41.7046Z" fill="#989FB0"/>
<path fill-rule="evenodd" clip-rule="evenodd" d="M57.0451 41.1672C57.0254 41.1766 57.018 41.2011 57.0285 41.2219C57.0391 41.2427 57.0635 41.252 57.0832 41.2426C57.1029 41.2333 57.1103 41.2088 57.0997 41.188C57.0892 41.1671 57.0647 41.1578 57.0451 41.1672ZM56.1564 41.6377C55.8877 41.1067 56.0763 40.4825 56.5777 40.2435C57.079 40.0045 57.7032 40.2412 57.9719 40.7722C58.2405 41.3032 58.0519 41.9274 57.5506 42.1664C57.0493 42.4054 56.425 42.1686 56.1564 41.6377Z" fill="#989FB0"/>
<path d="M50.7199 28.3826C50.9804 28.2584 51.0784 27.934 50.9388 27.6581C50.7992 27.3821 50.4749 27.2591 50.2144 27.3833C49.9539 27.5075 49.8558 27.8319 49.9954 28.1078C50.135 28.3837 50.4594 28.5067 50.7199 28.3826Z" fill="#989FB0"/>
<path fill-rule="evenodd" clip-rule="evenodd" d="M50.4479 27.8452C50.4282 27.8546 50.4208 27.8791 50.4314 27.8999C50.4419 27.9208 50.4664 27.93 50.486 27.9207C50.5057 27.9113 50.5131 27.8868 50.5026 27.866C50.492 27.8452 50.4675 27.8359 50.4479 27.8452ZM49.5592 28.3157C49.2905 27.7847 49.4792 27.1605 49.9805 26.9215C50.4819 26.6825 51.1061 26.9192 51.3747 27.4502C51.6434 27.9812 51.4548 28.6054 50.9534 28.8444C50.4521 29.0834 49.8279 28.8467 49.5592 28.3157Z" fill="#989FB0"/>
<path d="M70.6545 35.1404C70.915 35.0162 71.013 34.6918 70.8734 34.4159C70.7338 34.14 70.4094 34.017 70.1489 34.1412C69.8884 34.2654 69.7904 34.5897 69.93 34.8656C70.0696 35.1416 70.394 35.2646 70.6545 35.1404Z" fill="#989FB0"/>
<path fill-rule="evenodd" clip-rule="evenodd" d="M70.3825 34.6032C70.3628 34.6125 70.3554 34.637 70.3659 34.6579C70.3765 34.6787 70.401 34.688 70.4206 34.6786C70.4403 34.6692 70.4477 34.6447 70.4371 34.6239C70.4266 34.6031 70.4021 34.5938 70.3825 34.6032ZM69.4938 35.0736C69.2251 34.5426 69.4137 33.9184 69.9151 33.6794C70.4164 33.4403 71.0406 33.6771 71.3093 34.2081C71.578 34.7391 71.3893 35.3634 70.888 35.6024C70.3866 35.8414 69.7624 35.6047 69.4938 35.0736Z" fill="#989FB0"/>
<path d="M12.3005 51.098L14.9425 50.3017C15.1339 50.2461 15.1339 49.9684 14.9425 49.9128L12.3005 49.1165C12.2326 49.098 12.1832 49.0486 12.1647 48.9807L11.3684 46.3449C11.3128 46.1535 11.0351 46.1535 10.9795 46.3449L10.1832 48.9807C10.1647 49.0486 10.1153 49.098 10.0474 49.1165L7.41159 49.9128C7.22023 49.9684 7.22023 50.2461 7.41159 50.3017L10.0536 51.098C10.1215 51.1165 10.1709 51.1659 10.1894 51.2338L10.9857 53.8758C11.0412 54.0672 11.319 54.0672 11.3746 53.8758L12.1709 51.2338C12.1832 51.1659 12.2326 51.1165 12.3005 51.098Z" fill="#EAEEF9"/>
<path d="M96.5557 20.1732L99.2576 20.7335C99.4523 20.7759 99.5848 20.5318 99.4431 20.3917L97.5008 18.4316C97.45 18.383 97.4301 18.316 97.4463 18.2475L98.0036 15.551C98.0461 15.3563 97.8019 15.2238 97.6618 15.3655L95.7047 17.3023C95.656 17.3532 95.5891 17.373 95.5206 17.3569L92.8241 16.7995C92.6294 16.7571 92.4969 17.0012 92.6386 17.1413L94.5808 19.1014C94.6317 19.1501 94.6515 19.217 94.6354 19.2856L94.0751 21.9875C94.0326 22.1821 94.2768 22.3146 94.4169 22.1729L96.377 20.2307C96.4202 20.1769 96.4872 20.1571 96.5557 20.1732Z" fill="#EAEEF9"/>
<path d="M94.8952 87.0131L96.9595 85.182C97.1099 85.0513 96.9933 84.7991 96.7963 84.829L94.064 85.2144C93.9946 85.2261 93.9291 85.202 93.8838 85.1481L92.0553 83.0896C91.9246 82.9392 91.6724 83.0557 91.7023 83.2527L92.085 85.9793C92.0967 86.0487 92.0726 86.1143 92.0187 86.1596L89.96 87.9881C89.8096 88.1188 89.9262 88.3709 90.1232 88.3411L92.8555 87.9556C92.9249 87.9439 92.9904 87.9681 93.0357 88.0219L94.8668 90.0861C94.9975 90.2365 95.2497 90.1199 95.2198 89.9229L94.8345 87.1907C94.8172 87.1239 94.8413 87.0584 94.8952 87.0131Z" fill="#D6DCE8"/>
<path d="M73.8716 68.326L76.1834 67.6293C76.3508 67.5807 76.3508 67.3376 76.1834 67.289L73.8716 66.5923C73.8122 66.5761 73.769 66.5329 73.7528 66.4735L73.0561 64.1673C73.0074 63.9998 72.7644 63.9998 72.7158 64.1673L72.019 66.4735C72.0028 66.5329 71.9596 66.5761 71.9002 66.5923L69.5938 67.289C69.4264 67.3376 69.4264 67.5807 69.5938 67.6293L71.9056 68.326C71.965 68.3422 72.0082 68.3854 72.0244 68.4448L72.7212 70.7564C72.7698 70.9239 73.0128 70.9239 73.0615 70.7564L73.7582 68.4448C73.769 68.3854 73.8122 68.3422 73.8716 68.326Z" fill="#D6DCE8"/>
<path d="M29.5118 100.762L31.8235 99.9653C31.991 99.9097 31.991 99.6319 31.8235 99.5764L29.5118 98.7801C29.4524 98.7616 29.4092 98.7122 29.393 98.6443L28.6962 96.0084C28.6476 95.8171 28.4045 95.8171 28.3559 96.0084L27.6591 98.6443C27.6429 98.7122 27.5997 98.7616 27.5403 98.7801L25.234 99.5764C25.0665 99.6319 25.0665 99.9097 25.234 99.9653L27.5457 100.762C27.6051 100.78 27.6483 100.829 27.6646 100.897L28.3613 103.539C28.4099 103.731 28.653 103.731 28.7016 103.539L29.3984 100.897C29.4092 100.829 29.4524 100.78 29.5118 100.762Z" fill="#D6DCE8"/>
<path d="M25.6922 61.6717L27.3434 61.1741C27.463 61.1394 27.463 60.9658 27.3434 60.931L25.6922 60.4334C25.6497 60.4218 25.6188 60.391 25.6073 60.3485L25.1096 58.7013C25.0749 58.5817 24.9013 58.5817 24.8665 58.7013L24.3688 60.3485C24.3573 60.391 24.3264 60.4218 24.284 60.4334L22.6366 60.931C22.517 60.9658 22.517 61.1394 22.6366 61.1741L24.2878 61.6717C24.3303 61.6833 24.3611 61.7142 24.3727 61.7566L24.8704 63.4077C24.9051 63.5273 25.0787 63.5273 25.1134 63.4077L25.6111 61.7566C25.6188 61.7142 25.6497 61.6833 25.6922 61.6717Z" fill="#D6DCE8"/>
<path d="M120.831 62.7623L122.482 62.2647C122.602 62.2299 122.602 62.0563 122.482 62.0216L120.831 61.524C120.788 61.5124 120.758 61.4815 120.746 61.4391L120.248 59.7918C120.214 59.6723 120.04 59.6723 120.005 59.7918L119.508 61.4391C119.496 61.4815 119.465 61.5124 119.423 61.524L117.775 62.0216C117.656 62.0563 117.656 62.2299 117.775 62.2647L119.426 62.7623C119.469 62.7739 119.5 62.8047 119.511 62.8472L120.009 64.4983C120.044 64.6179 120.217 64.6179 120.252 64.4983L120.75 62.8472C120.758 62.8047 120.788 62.7739 120.831 62.7623Z" fill="#EAEEF9"/>
<path d="M37.8972 38.6538L39.5485 38.1561C39.6681 38.1214 39.6681 37.9478 39.5485 37.9131L37.8972 37.4154C37.8548 37.4038 37.8239 37.373 37.8124 37.3305L37.3147 35.6833C37.2799 35.5637 37.1063 35.5637 37.0716 35.6833L36.5739 37.3305C36.5623 37.373 36.5315 37.4038 36.489 37.4154L34.8417 37.9131C34.7221 37.9478 34.7221 38.1214 34.8417 38.1561L36.4929 38.6538C36.5353 38.6653 36.5662 38.6962 36.5778 38.7386L37.0755 40.3897C37.1102 40.5093 37.2838 40.5093 37.3185 40.3897L37.8162 38.7386C37.8239 38.6962 37.8548 38.6653 37.8972 38.6538Z" fill="#D6DCE8"/>
<path d="M13.3069 94.1034L14.9581 93.6057C15.0777 93.571 15.0777 93.3974 14.9581 93.3627L13.3069 92.865C13.2645 92.8535 13.2336 92.8226 13.222 92.7802L12.7243 91.1329C12.6896 91.0133 12.516 91.0133 12.4813 91.1329L11.9836 92.7802C11.972 92.8226 11.9411 92.8535 11.8987 92.865L10.2513 93.3627C10.1317 93.3974 10.1317 93.571 10.2513 93.6057L11.9026 94.1034C11.945 94.1149 11.9759 94.1458 11.9874 94.1882L12.4851 95.8394C12.5199 95.9589 12.6935 95.9589 12.7282 95.8394L13.2259 94.1882C13.2336 94.1458 13.2645 94.1149 13.3069 94.1034Z" fill="#EAEEF9"/>
<path d="M74.5356 113.547C74.5356 113.547 64.4216 122.925 63.7422 122.973C63.2927 123.146 59.3138 124.796 56.7792 125.861L56.1085 124.904C55.7731 124.426 55.4377 123.948 55.1309 123.308C55.255 123.078 55.3121 122.752 55.3692 122.427C56.6664 118.378 60.698 112.126 69.1952 112.442L74.5356 113.547Z" fill="#F1F3F9" stroke="#D6DCE8" stroke-width="1.9781" stroke-miterlimit="10" stroke-linecap="round" stroke-linejoin="round"/>
<g filter="url(#filter1_d)">
<path d="M58.6922 68.5908L61.979 73.276C62.9181 74.6147 63.5603 75.7336 64.0498 77.2449C65.8824 82.0943 65.1988 87.4247 62.6771 91.7618C62.209 92.5182 61.9707 93.3988 62.0863 94.1737C62.1063 95.0157 62.356 95.9819 62.8927 96.7468C63.9659 98.2767 65.7655 99.0117 67.5737 98.7419C73.3808 97.6644 79.3534 99.4668 83.4436 103.874C83.9417 104.38 84.3442 104.954 84.8137 105.623L88.1005 110.309C88.5029 110.882 88.8098 111.523 89.1452 112.001L61.0335 131.722C60.6025 131.311 60.133 130.642 59.7976 130.163L56.5108 125.478C56.1754 125 55.9357 124.455 55.6003 123.977C55.4661 123.786 55.3605 123.432 55.1593 123.145C52.5704 117.827 52.88 111.761 55.8413 106.83C56.7775 105.317 56.6319 103.279 55.5586 101.749C55.0891 101.08 54.3612 100.449 53.5763 100.144C53.5092 100.048 53.4136 100.115 53.4136 100.115C52.6287 99.8096 51.7867 99.8296 50.9447 99.8496C47.0414 100.59 43.0411 99.9724 39.4319 98.0815C38.5128 97.5849 37.5937 97.0882 36.7988 96.3618C36.569 96.2377 36.3678 95.9508 36.2336 95.7596C35.3716 94.9375 34.4425 94.0199 33.7047 92.9681L30.4179 88.2828C30.3508 88.1872 30.2167 87.996 30.0825 87.8047L58.3854 67.95C58.491 68.3039 58.5581 68.3995 58.6922 68.5908Z" fill="url(#paint1_linear)"/>
</g>
<path d="M56.5304 88.0842L45.3631 96.7742L39.5946 98.1101C38.6755 97.6134 37.7565 97.1168 36.9615 96.3904C36.7318 96.2662 36.5305 95.9794 36.3964 95.7881C39.4818 90.6276 42.3203 87.3522 50.5763 85.6981C51.9635 85.4383 53.2551 85.2456 54.805 85.0144C68.6011 83.3259 56.5304 88.0842 56.5304 88.0842Z" fill="#BAC3D1"/>
<path d="M64.1171 77.3405C65.9496 82.1899 65.266 87.5203 62.7443 91.8574C62.2762 92.6138 62.0379 93.4944 62.1535 94.2693L62.0579 94.3364C60.528 95.4096 60.1284 97.6873 61.2017 99.2172L71.1961 113.464L68.4232 115.41L58.3617 101.067C57.2885 99.537 55.1063 99.0703 53.4808 100.211C52.6959 99.9052 51.8539 99.9252 51.0119 99.9452C47.1086 100.686 43.1084 100.068 39.4991 98.1771C38.58 97.6805 37.6609 97.1838 36.866 96.4574C45.3803 94.7647 48.2459 89.901 50.4523 85.9278C51.1687 84.7119 51.7895 83.563 52.4773 82.5098C55.2003 78.4595 59.2177 77.068 64.1171 77.3405Z" fill="#D5DDEA"/>
<path d="M84.7178 105.69L88.0046 110.376C88.407 110.949 88.7139 111.59 89.0493 112.068L63.9974 129.642L59.3949 129.59L56.4435 125.383C56.1081 124.904 55.7727 124.426 55.5329 123.881C55.3988 123.69 55.2932 123.336 55.0919 123.049C55.1876 122.982 55.2546 123.078 55.3503 123.011C55.513 123.039 55.6086 122.972 55.7042 122.905C65.022 120.934 67.5137 115.334 69.8727 110.968C70.2452 110.279 70.7133 109.522 71.1528 108.929C74.0385 104.907 78.2186 103.544 83.2807 103.845C83.7502 104.514 84.2483 105.021 84.7178 105.69Z" fill="#D5DDEA"/>
<path d="M60.9889 68.4062L29.6263 90.4074C28.957 90.8769 27.9808 90.7057 27.5783 90.132L25.4319 87.0722C24.9623 86.4029 25.2007 85.5223 25.87 85.0528L57.3282 62.9845C57.9976 62.515 58.9067 62.5906 59.3762 63.2599L61.4556 66.2241C61.7339 67.0275 61.6583 67.9366 60.9889 68.4062Z" fill="url(#paint2_linear)"/>
<path d="M92.6489 113.538L61.2863 135.54C60.6169 136.009 59.7078 135.933 59.2383 135.264L57.1589 132.3C56.6894 131.631 56.9277 130.75 57.597 130.281L89.0553 108.212C89.7246 107.743 90.6337 107.818 91.1032 108.488L93.1826 111.452C93.4609 112.255 93.3182 113.069 92.6489 113.538Z" fill="url(#paint3_linear)"/>
<path d="M93.8341 64.76C93.8341 64.76 87.0037 62.2089 86.8196 61.8995C86.6313 61.7282 84.9075 60.2404 83.803 59.296L84.0954 58.7522C84.2416 58.4803 84.3878 58.2084 84.6176 57.9113C84.7556 57.9154 84.9229 57.8652 85.0901 57.8149C87.3104 57.4665 91.2207 57.8866 93.0881 61.9753L93.8341 64.76Z" fill="#F1F3F9" stroke="#D6DCE8" stroke-width="1.9781" stroke-miterlimit="10" stroke-linecap="round" stroke-linejoin="round"/>
<g filter="url(#filter2_d)">
<path d="M111.308 46.6049L109.875 49.2695C109.466 50.0309 109.09 50.5998 108.492 51.1898C106.636 53.2065 103.956 54.149 101.309 53.9874C100.841 53.9459 100.368 54.0423 100.03 54.2809C99.6367 54.4902 99.2396 54.8375 99.0057 55.2726C98.5378 56.1427 98.6179 57.1672 99.1745 57.9572C101.062 60.4443 101.628 63.6932 100.518 66.6713C100.397 67.0269 100.221 67.3531 100.017 67.7338L98.5837 70.3985C98.4083 70.7247 98.1785 71.0218 98.0323 71.2937L82.0444 62.6968C82.1362 62.3956 82.3409 62.015 82.4871 61.7431L83.9199 59.0784C84.0661 58.8065 84.2667 58.5639 84.4129 58.292C84.4714 58.1832 84.6135 58.0493 84.7012 57.8861C86.5983 55.401 89.5374 54.1072 92.5693 54.3354C93.5061 54.4185 94.4341 53.866 94.902 52.9959C95.1067 52.6152 95.2319 52.1217 95.1898 51.6784C95.219 51.624 95.1646 51.5948 95.1646 51.5948C95.1226 51.1516 94.9132 50.7586 94.7039 50.3656C93.4275 48.6978 92.7698 46.6616 92.8062 44.508C92.8226 43.956 92.839 43.404 92.9934 42.8561C92.9975 42.7181 93.0852 42.5549 93.1437 42.4462C93.3274 41.8439 93.5402 41.1872 93.8619 40.589L95.2947 37.9244C95.324 37.87 95.3824 37.7612 95.4409 37.6525L111.538 46.3078C111.395 46.4417 111.366 46.4961 111.308 46.6049Z" fill="url(#paint4_linear)"/>
</g>
<path d="M101.587 50.2111L94.8318 46.9992L92.8315 44.5916C92.8479 44.0396 92.8643 43.4876 93.0187 42.9397C93.0228 42.8017 93.1105 42.6386 93.169 42.5298C96.339 42.7622 98.5598 43.3254 101.301 46.8324C101.753 47.4259 102.151 47.9902 102.628 48.6674C106.7 54.783 101.587 50.2111 101.587 50.2111Z" fill="#BAC3D1"/>
<path d="M108.462 51.2442C106.607 53.2609 103.927 54.2034 101.28 54.0418C100.811 54.0003 100.339 54.0967 100 54.3353L99.9459 54.3061C99.0758 53.8382 97.9051 54.1901 97.4372 55.0602L93.0803 63.1629L91.5033 62.315L95.8894 54.1579C96.3573 53.2878 96.0597 52.1463 95.1353 51.6492C95.0932 51.206 94.8839 50.813 94.6745 50.42C93.3981 48.7522 92.7404 46.7161 92.7768 44.5624C92.7932 44.0104 92.8096 43.4584 92.964 42.9105C95.7847 46.5303 98.7622 46.7293 101.163 46.8283C101.907 46.878 102.597 46.8985 103.258 46.9734C105.817 47.2981 107.428 48.8654 108.462 51.2442Z" fill="#D5DDEA"/>
<path d="M99.9622 67.7046L98.5294 70.3693C98.354 70.6955 98.1241 70.9926 97.9779 71.2645L83.7302 63.6033L82.6626 61.4168L83.9492 59.0241C84.0954 58.7522 84.2416 58.4803 84.4422 58.2376C84.5007 58.1289 84.6428 57.995 84.7305 57.8318C84.7849 57.8611 84.7556 57.9154 84.81 57.9447C84.8352 58.0283 84.8895 58.0575 84.9439 58.0868C88.0867 62.02 91.3234 61.8676 93.9454 61.9456C94.3594 61.9579 94.8278 61.9994 95.2126 62.0661C97.7972 62.4744 99.4332 64.1253 100.493 66.5878C100.288 66.9684 100.167 67.3239 99.9622 67.7046Z" fill="#D5DDEA"/>
<path d="M111.939 47.6458L94.1026 38.0547C93.722 37.85 93.5711 37.3483 93.7466 37.022L94.6823 35.2818C94.887 34.9012 95.3595 34.8047 95.7402 35.0094L113.631 44.6297C114.012 44.8344 114.192 45.2818 113.987 45.6625L113.081 47.3482C112.767 47.6704 112.32 47.8505 111.939 47.6458Z" fill="url(#paint5_linear)"/>
<path d="M98.1382 73.3134L80.3013 63.7223C79.9207 63.5176 79.7406 63.0703 79.9453 62.6896L80.8517 61.0038C81.0564 60.6232 81.5289 60.5267 81.9096 60.7314L99.8008 70.3517C100.181 70.5564 100.362 71.0038 100.157 71.3844L99.2504 73.0702C98.9369 73.3924 98.5188 73.5181 98.1382 73.3134Z" fill="url(#paint6_linear)"/>
<defs>
<filter id="filter0_d" x="18.0527" y="0" width="84.4922" height="84.4922" filterUnits="userSpaceOnUse" color-interpolation-filters="sRGB">
<feFlood flood-opacity="0" result="BackgroundImageFix"/>
<feColorMatrix in="SourceAlpha" type="matrix" values="0 0 0 0 0 0 0 0 0 0 0 0 0 0 0 0 0 0 127 0" result="hardAlpha"/>
<feOffset dy="11"/>
<feGaussianBlur stdDeviation="11"/>
<feColorMatrix type="matrix" values="0 0 0 0 0.397708 0 0 0 0 0.47749 0 0 0 0 0.575 0 0 0 0.27 0"/>
<feBlend mode="normal" in2="BackgroundImageFix" result="effect1_dropShadow"/>
<feBlend mode="normal" in="SourceGraphic" in2="effect1_dropShadow" result="shape"/>
</filter>
<filter id="filter1_d" x="8.08252" y="56.95" width="103.158" height="107.839" filterUnits="userSpaceOnUse" color-interpolation-filters="sRGB">
<feFlood flood-opacity="0" result="BackgroundImageFix"/>
<feColorMatrix in="SourceAlpha" type="matrix" values="0 0 0 0 0 0 0 0 0 0 0 0 0 0 0 0 0 0 127 0" result="hardAlpha"/>
<feOffset dy="11"/>
<feGaussianBlur stdDeviation="11"/>
<feColorMatrix type="matrix" values="0 0 0 0 0.397708 0 0 0 0 0.47749 0 0 0 0 0.575 0 0 0 0.27 0"/>
<feBlend mode="normal" in2="BackgroundImageFix" result="effect1_dropShadow"/>
<feBlend mode="normal" in="SourceGraphic" in2="effect1_dropShadow" result="shape"/>
</filter>
<filter id="filter2_d" x="59.9897" y="26.6525" width="73.5476" height="77.6705" filterUnits="userSpaceOnUse" color-interpolation-filters="sRGB">
<feFlood flood-opacity="0" result="BackgroundImageFix"/>
<feColorMatrix in="SourceAlpha" type="matrix" values="0 0 0 0 0 0 0 0 0 0 0 0 0 0 0 0 0 0 127 0" result="hardAlpha"/>
<feOffset dy="11"/>
<feGaussianBlur stdDeviation="11"/>
<feColorMatrix type="matrix" values="0 0 0 0 0.397708 0 0 0 0 0.47749 0 0 0 0 0.575 0 0 0 0.27 0"/>
<feBlend mode="normal" in2="BackgroundImageFix" result="effect1_dropShadow"/>
<feBlend mode="normal" in="SourceGraphic" in2="effect1_dropShadow" result="shape"/>
</filter>
<linearGradient id="paint0_linear" x1="65.6462" y1="15.4173" x2="55.0581" y2="46.6946" gradientUnits="userSpaceOnUse">
<stop stop-color="#FDFEFF"/>
<stop offset="0.9964" stop-color="#ECF0F5"/>
</linearGradient>
<linearGradient id="paint1_linear" x1="43.511" y1="76.8664" x2="75.4128" y2="122.342" gradientUnits="userSpaceOnUse">
<stop stop-color="#FDFEFF"/>
<stop offset="0.9964" stop-color="#ECF0F5"/>
</linearGradient>
<linearGradient id="paint2_linear" x1="26.49" y1="88.6136" x2="60.456" y2="64.786" gradientUnits="userSpaceOnUse">
<stop stop-color="#B0BACC"/>
<stop offset="1" stop-color="#969EAE"/>
</linearGradient>
<linearGradient id="paint3_linear" x1="58.1835" y1="133.793" x2="92.1495" y2="109.966" gradientUnits="userSpaceOnUse">
<stop stop-color="#B0BACC"/>
<stop offset="1" stop-color="#969EAE"/>
</linearGradient>
<linearGradient id="paint4_linear" x1="103.795" y1="41.3987" x2="89.8881" y2="67.2621" gradientUnits="userSpaceOnUse">
<stop stop-color="#FDFEFF"/>
<stop offset="0.9964" stop-color="#ECF0F5"/>
</linearGradient>
<linearGradient id="paint5_linear" x1="94.2054" y1="36.1475" x2="113.523" y2="46.5348" gradientUnits="userSpaceOnUse">
<stop stop-color="#B0BACC"/>
<stop offset="1" stop-color="#969EAE"/>
</linearGradient>
<linearGradient id="paint6_linear" x1="80.3895" y1="61.8423" x2="99.707" y2="72.2296" gradientUnits="userSpaceOnUse">
<stop stop-color="#B0BACC"/>
<stop offset="1" stop-color="#969EAE"/>
</linearGradient>
</defs>
</svg>
